<svg xmlns="http://www.w3.org/2000/svg" width="900" height="560" viewBox="0 0 900 560">
<rect width="100%" height="100%" fill="white"/>
<text x="450" y="30" text-anchor="middle" font-family="sans-serif" font-size="20">Request-Model Absolute Relative Error</text>
<text x="20" y="270" transform="rotate(-90 20 270)" text-anchor="middle" font-family="sans-serif" font-size="14">Absolute relative error (%) — log scale</text>
<line x1="90" y1="60" x2="90" y2="480" stroke="#333"/>
<line x1="90" y1="480" x2="870" y2="480" stroke="#333"/>
<text x="450" y="540" text-anchor="middle" font-family="sans-serif" font-size="14">Square matrix dimension</text>
<text x="90.0" y="505" text-anchor="middle" font-family="sans-serif" font-size="12">128</text>
<text x="285.0" y="505" text-anchor="middle" font-family="sans-serif" font-size="12">256</text>
<text x="480.0" y="505" text-anchor="middle" font-family="sans-serif" font-size="12">512</text>
<text x="675.0" y="505" text-anchor="middle" font-family="sans-serif" font-size="12">1024</text>
<text x="870.0" y="505" text-anchor="middle" font-family="sans-serif" font-size="12">2048</text>
<line x1="90" y1="480.0" x2="870" y2="480.0" stroke="#ddd"/>
<text x="80" y="484.0" text-anchor="end" font-family="sans-serif" font-size="12">1</text>
<line x1="90" y1="375.0" x2="870" y2="375.0" stroke="#ddd"/>
<text x="80" y="379.0" text-anchor="end" font-family="sans-serif" font-size="12">10</text>
<line x1="90" y1="270.0" x2="870" y2="270.0" stroke="#ddd"/>
<text x="80" y="274.0" text-anchor="end" font-family="sans-serif" font-size="12">100</text>
<line x1="90" y1="165.0" x2="870" y2="165.0" stroke="#ddd"/>
<text x="80" y="169.0" text-anchor="end" font-family="sans-serif" font-size="12">1000</text>
<line x1="90" y1="60.0" x2="870" y2="60.0" stroke="#ddd"/>
<text x="80" y="64.0" text-anchor="end" font-family="sans-serif" font-size="12">10000</text>
<polyline points="90.0,369.9 285.0,285.4 480.0,279.5 675.0,278.0 870.0,277.9" fill="none" stroke="#4C78A8" stroke-width="3"/>
<polyline points="90.0,161.0 285.0,230.7 480.0,272.5 675.0,286.6 870.0,288.8" fill="none" stroke="#F58518" stroke-width="3"/>
<polyline points="90.0,119.3 285.0,194.8 480.0,249.7 675.0,277.9 870.0,285.8" fill="none" stroke="#54A24B" stroke-width="3"/>
<polyline points="90.0,130.6 285.0,207.2 480.0,266.3 675.0,302.4 870.0,312.8" fill="none" stroke="#E45756" stroke-width="3"/>
<circle cx="690" cy="72" r="5" fill="#4C78A8"/>
<text x="702" y="76" font-family="sans-serif" font-size="12">naive</text>
<circle cx="690" cy="92" r="5" fill="#F58518"/>
<text x="702" y="96" font-family="sans-serif" font-size="12">tiled16</text>
<circle cx="690" cy="112" r="5" fill="#54A24B"/>
<text x="702" y="116" font-family="sans-serif" font-size="12">microtile2x2</text>
<circle cx="690" cy="132" r="5" fill="#E45756"/>
<text x="702" y="136" font-family="sans-serif" font-size="12">microtile4x1</text>
</svg>
